<svg xmlns="http://www.w3.org/2000/svg" xmlns:xlink="http://www.w3.org/1999/xlink" viewBox="0 0 1944 1941.9"><defs><style>.cls-1{fill:url(#linear-gradient);}.cls-2{fill:url(#linear-gradient-2);}.cls-3{fill:url(#linear-gradient-3);}.cls-4{fill:url(#linear-gradient-4);}.cls-5{fill:url(#linear-gradient-5);}.cls-6{fill:url(#linear-gradient-6);}.cls-7{fill:url(#linear-gradient-7);}.cls-8{fill:url(#linear-gradient-8);}.cls-9{fill:url(#linear-gradient-9);}.cls-10{fill:url(#linear-gradient-10);}.cls-11{fill:url(#linear-gradient-11);}.cls-12{fill:url(#linear-gradient-12);}.cls-13{fill:url(#linear-gradient-13);}.cls-14{fill:url(#linear-gradient-14);}.cls-15{fill:url(#linear-gradient-15);}.cls-16{fill:url(#linear-gradient-16);}.cls-17{fill:url(#linear-gradient-17);}.cls-18{fill:url(#linear-gradient-18);}.cls-19{fill:url(#linear-gradient-19);}.cls-20{fill:url(#linear-gradient-20);}.cls-21{fill:url(#linear-gradient-21);}.cls-22{fill:url(#linear-gradient-22);}.cls-23{fill:url(#linear-gradient-23);}.cls-24{fill:url(#linear-gradient-24);}.cls-25{fill:url(#linear-gradient-25);}.cls-26{fill:url(#linear-gradient-26);}.cls-27{fill:url(#linear-gradient-27);}</style><linearGradient id="linear-gradient" x1="126.33" y1="192.7" x2="293.32" y2="192.7" gradientUnits="userSpaceOnUse"><stop offset="0" stop-color="#6a82fb"/><stop offset="0.85" stop-color="#fc5c7d"/></linearGradient><linearGradient id="linear-gradient-2" x1="338.9" y1="192.7" x2="505.89" y2="192.7" xlink:href="#linear-gradient"/><linearGradient id="linear-gradient-3" x1="551.48" y1="192.7" x2="718.47" y2="192.7" xlink:href="#linear-gradient"/><linearGradient id="linear-gradient-4" x1="0" y1="970.95" x2="1944" y2="970.95" xlink:href="#linear-gradient"/><linearGradient id="linear-gradient-5" x1="149.64" y1="471.96" x2="350.69" y2="471.96" xlink:href="#linear-gradient"/><linearGradient id="linear-gradient-6" x1="392.43" y1="471.96" x2="517.61" y2="471.96" xlink:href="#linear-gradient"/><linearGradient id="linear-gradient-7" x1="271.03" y1="572.39" x2="422.77" y2="572.39" xlink:href="#linear-gradient"/><linearGradient id="linear-gradient-8" x1="718.66" y1="676.41" x2="870.39" y2="676.41" xlink:href="#linear-gradient"/><linearGradient id="linear-gradient-9" x1="453.12" y1="572.39" x2="737.63" y2="572.39" xlink:href="#linear-gradient"/><linearGradient id="linear-gradient-10" x1="362.07" y1="676.41" x2="468.29" y2="676.41" xlink:href="#linear-gradient"/><linearGradient id="linear-gradient-11" x1="494.84" y1="676.41" x2="688.32" y2="676.41" xlink:href="#linear-gradient"/><linearGradient id="linear-gradient-12" x1="149.64" y1="1045.16" x2="350.69" y2="1045.16" xlink:href="#linear-gradient"/><linearGradient id="linear-gradient-13" x1="392.43" y1="1045.16" x2="517.61" y2="1045.16" xlink:href="#linear-gradient"/><linearGradient id="linear-gradient-14" x1="271.03" y1="1145.6" x2="422.77" y2="1145.6" xlink:href="#linear-gradient"/><linearGradient id="linear-gradient-15" x1="362.07" y1="1249.62" x2="468.29" y2="1249.62" xlink:href="#linear-gradient"/><linearGradient id="linear-gradient-16" x1="718.66" y1="1249.62" x2="870.39" y2="1249.62" xlink:href="#linear-gradient"/><linearGradient id="linear-gradient-17" x1="453.12" y1="1145.6" x2="737.63" y2="1145.6" xlink:href="#linear-gradient"/><linearGradient id="linear-gradient-18" x1="494.84" y1="1249.62" x2="688.32" y2="1249.62" xlink:href="#linear-gradient"/><linearGradient id="linear-gradient-19" x1="149.64" y1="806.78" x2="286.2" y2="806.78" xlink:href="#linear-gradient"/><linearGradient id="linear-gradient-20" x1="308.97" y1="806.78" x2="657.96" y2="806.78" xlink:href="#linear-gradient"/><linearGradient id="linear-gradient-21" x1="271.03" y1="907.21" x2="604.86" y2="907.21" xlink:href="#linear-gradient"/><linearGradient id="linear-gradient-22" x1="627.61" y1="907.21" x2="737.63" y2="907.21" xlink:href="#linear-gradient"/><linearGradient id="linear-gradient-23" x1="1091.85" y1="1128.22" x2="1330.85" y2="1128.22" xlink:href="#linear-gradient"/><linearGradient id="linear-gradient-24" x1="1376.37" y1="1128.22" x2="1793.65" y2="1128.22" xlink:href="#linear-gradient"/><linearGradient id="linear-gradient-25" x1="1091.85" y1="1238.23" x2="1330.85" y2="1238.23" xlink:href="#linear-gradient"/><linearGradient id="linear-gradient-26" x1="1376.37" y1="1238.23" x2="1793.65" y2="1238.23" xlink:href="#linear-gradient"/><linearGradient id="linear-gradient-27" x1="1090.98" y1="743.4" x2="1794.51" y2="743.4" xlink:href="#linear-gradient"/></defs><title>Asset 5</title><g id="Layer_2" data-name="Layer 2"><g id="Layer_5" data-name="Layer 5"><path class="cls-1" d="M209.82,109.2a83.5,83.5,0,1,0,83.5,83.49A83.59,83.59,0,0,0,209.82,109.2Zm0,110.08a26.59,26.59,0,1,1,26.59-26.59A26.62,26.62,0,0,1,209.82,219.28Z"/><path class="cls-2" d="M422.4,109.2a83.5,83.5,0,1,0,83.49,83.49A83.61,83.61,0,0,0,422.4,109.2Zm0,110.08A26.59,26.59,0,1,1,449,192.69,26.62,26.62,0,0,1,422.4,219.28Z"/><path class="cls-3" d="M635,109.2a83.5,83.5,0,1,0,83.5,83.49A83.59,83.59,0,0,0,635,109.2Zm0,110.08a26.59,26.59,0,1,1,26.59-26.59A26.62,26.62,0,0,1,635,219.28Z"/><path class="cls-4" d="M1913.39,561.27a28.46,28.46,0,0,0,28.46-28.46l2.15-407.6A125.35,125.35,0,0,0,1818.79,0H125.22A125.37,125.37,0,0,0,0,125.22V1501.84c0,62.58,46.14,114.57,106.18,123.77a124.68,124.68,0,0,0,19,1.45h553.6v102h-85.9A104,104,0,0,0,489,1833v61.48a47.45,47.45,0,0,0,47.41,47.41H672.09a28.45,28.45,0,1,0,0-56.9H545.9v-52a47.06,47.06,0,0,1,47-47h756a47.06,47.06,0,0,1,47,47v52H848.72a28.45,28.45,0,1,0,0,56.9h556.7a47.46,47.46,0,0,0,47.42-47.41V1833a104,104,0,0,0-103.93-103.91H1263v-102h553.61a125.18,125.18,0,0,0,125.21-125.22V709.21a28.45,28.45,0,1,0-56.89,0V1337H995.58V387h889.36v145.8a28.46,28.46,0,0,0,28.45,28.46ZM59,387H938.67v948H59ZM1206.12,1729.1H735.73v-102h470.39Zm678.82-335.18v107.92a68.43,68.43,0,0,1-61.35,68c-2.29.22-4.61.34-7,.34H125.22c-2.36,0-4.68-.12-7-.34a68.42,68.42,0,0,1-61.34-68V1393.92ZM967.13,330.1H59V125.21a68.38,68.38,0,0,1,68.31-68.3H1816.62a68.38,68.38,0,0,1,68.32,68.31V330.1Z"/><path class="cls-5" d="M178.1,500.4H322.24a28.45,28.45,0,1,0,0-56.89H178.1a28.45,28.45,0,1,0,0,56.89Z"/><path class="cls-6" d="M420.88,500.4h68.28a28.45,28.45,0,1,0,0-56.89H420.88a28.45,28.45,0,1,0,0,56.89Z"/><path class="cls-7" d="M394.31,543.93H299.48a28.46,28.46,0,0,0,0,56.91h94.83a28.46,28.46,0,1,0,0-56.91Z"/><path class="cls-8" d="M841.94,648H747.11a28.45,28.45,0,0,0,0,56.9h94.83a28.45,28.45,0,0,0,0-56.9Z"/><path class="cls-9" d="M453.12,572.39a28.45,28.45,0,0,0,28.45,28.45h227.6a28.46,28.46,0,1,0,0-56.91H481.57A28.46,28.46,0,0,0,453.12,572.39Z"/><path class="cls-10" d="M362.07,676.41a28.46,28.46,0,0,0,28.46,28.45h49.32a28.45,28.45,0,0,0,0-56.9H390.53A28.46,28.46,0,0,0,362.07,676.41Z"/><path class="cls-11" d="M659.86,704.86a28.45,28.45,0,1,0,0-56.9H523.3a28.45,28.45,0,1,0,0,56.9Z"/><path class="cls-12" d="M350.69,1045.17a28.44,28.44,0,0,0-28.45-28.45H178.1a28.45,28.45,0,1,0,0,56.89H322.24A28.45,28.45,0,0,0,350.69,1045.17Z"/><path class="cls-13" d="M420.88,1016.72a28.45,28.45,0,1,0,0,56.89h68.28a28.45,28.45,0,1,0,0-56.89Z"/><path class="cls-14" d="M422.77,1145.59a28.46,28.46,0,0,0-28.46-28.45H299.48a28.46,28.46,0,0,0,0,56.91h94.83A28.46,28.46,0,0,0,422.77,1145.59Z"/><path class="cls-15" d="M439.85,1221.17H390.53a28.45,28.45,0,1,0,0,56.89h49.32a28.45,28.45,0,0,0,0-56.89Z"/><path class="cls-16" d="M841.94,1221.17H747.11a28.45,28.45,0,1,0,0,56.89h94.83a28.45,28.45,0,1,0,0-56.89Z"/><path class="cls-17" d="M737.63,1145.59a28.46,28.46,0,0,0-28.46-28.45H481.57a28.46,28.46,0,0,0,0,56.91h227.6A28.46,28.46,0,0,0,737.63,1145.59Z"/><path class="cls-18" d="M659.86,1221.17H523.3a28.45,28.45,0,1,0,0,56.89H659.86a28.45,28.45,0,1,0,0-56.89Z"/><path class="cls-19" d="M178.1,835.23h79.66a28.45,28.45,0,0,0,0-56.9H178.1a28.45,28.45,0,1,0,0,56.9Z"/><path class="cls-20" d="M658,806.78a28.44,28.44,0,0,0-28.45-28.45H337.42a28.45,28.45,0,1,0,0,56.9H629.51A28.45,28.45,0,0,0,658,806.78Z"/><path class="cls-21" d="M604.86,907.2a28.46,28.46,0,0,0-28.46-28.45H299.48a28.46,28.46,0,0,0,0,56.91H576.4A28.46,28.46,0,0,0,604.86,907.2Z"/><path class="cls-22" d="M656.07,935.66h53.1a28.46,28.46,0,1,0,0-56.91h-53.1a28.46,28.46,0,1,0,0,56.91Z"/><path class="cls-23" d="M1302.39,1099.77H1120.31a28.45,28.45,0,1,0,0,56.9h182.08a28.45,28.45,0,1,0,0-56.9Z"/><path class="cls-24" d="M1765.19,1099.77H1404.81a28.45,28.45,0,0,0,0,56.9h360.38a28.45,28.45,0,1,0,0-56.9Z"/><path class="cls-25" d="M1302.39,1209.78H1120.31a28.46,28.46,0,1,0,0,56.91h182.08a28.46,28.46,0,1,0,0-56.91Z"/><path class="cls-26" d="M1765.19,1209.78H1404.81a28.46,28.46,0,0,0,0,56.91h360.38a28.46,28.46,0,1,0,0-56.91Z"/><path class="cls-27" d="M1794.51,517a73.59,73.59,0,0,0-73.5-73.52H1164.5A73.6,73.6,0,0,0,1091,517V969.78a73.6,73.6,0,0,0,73.52,73.51H1721a73.59,73.59,0,0,0,73.5-73.51Zm-56.89,452.75A16.63,16.63,0,0,1,1721,986.39H1164.5a16.62,16.62,0,0,1-16.61-16.61V914.16l208.38-208.28L1500.09,868a28.46,28.46,0,1,0,42.57-37.77l-13.05-14.69,64.31-64.28,143.7,162Zm0-142.34L1628.12,704a45,45,0,0,0-65.54-2l-70.81,70.76L1390.47,658.7a45.05,45.05,0,0,0-65.54-2l-177,177V517a16.63,16.63,0,0,1,16.61-16.63H1721A16.63,16.63,0,0,1,1737.62,517Z"/></g></g></svg>