<svg xmlns="http://www.w3.org/2000/svg" xmlns:xlink="http://www.w3.org/1999/xlink" viewBox="0 0 2000 2000"><defs><style>.cls-1{fill:url(#linear-gradient);}.cls-2{fill:url(#linear-gradient-2);}.cls-3{fill:url(#linear-gradient-3);}.cls-4{fill:url(#linear-gradient-4);}.cls-5{fill:url(#linear-gradient-5);}</style><linearGradient id="linear-gradient" x1="395.7" y1="997.85" x2="1608.61" y2="997.85" gradientUnits="userSpaceOnUse"><stop offset="0" stop-color="#6a82fb"/><stop offset="0.85" stop-color="#fc5c7d"/></linearGradient><linearGradient id="linear-gradient-2" x1="610.75" y1="997.85" x2="1393.55" y2="997.85" xlink:href="#linear-gradient"/><linearGradient id="linear-gradient-3" x1="1410.75" y1="447.31" x2="1694.63" y2="447.31" xlink:href="#linear-gradient"/><linearGradient id="linear-gradient-4" x1="0" y1="1000" x2="2000" y2="1000" xlink:href="#linear-gradient"/><linearGradient id="linear-gradient-5" x1="150.54" y1="1000" x2="1849.46" y2="1000" xlink:href="#linear-gradient"/></defs><title>Asset 1</title><g id="Layer_2" data-name="Layer 2"><g id="Layer_1-2" data-name="Layer 1"><path class="cls-1" d="M1002.15,391.4c-334.4,0-606.45,272.05-606.45,606.45a606.26,606.26,0,0,0,81.15,303.25,32.26,32.26,0,1,0,55.85-32.3,541.76,541.76,0,0,1-72.48-270.95c0-298.82,243.11-541.93,541.93-541.93S1544.09,699,1544.09,997.85,1301,1539.79,1002.15,1539.79c-150.35,0-290.12-60.15-393.54-169.36a32.26,32.26,0,0,0-46.85,44.37C677.5,1537,833.9,1604.3,1002.15,1604.3c334.4,0,606.46-272,606.46-606.45S1336.55,391.4,1002.15,391.4Z"/><path class="cls-2" d="M1002.15,606.45c-215.82,0-391.4,175.58-391.4,391.4s175.58,391.4,391.4,391.4,391.4-175.58,391.4-391.4S1218,606.45,1002.15,606.45Zm0,718.28c-180.24,0-326.88-146.64-326.88-326.88S821.91,671,1002.15,671,1329,817.6,1329,997.85,1182.39,1324.73,1002.15,1324.73Z"/><path class="cls-3" d="M1552.69,305.38c-78.26,0-141.94,63.67-141.94,141.93s63.68,141.94,141.94,141.94,141.94-63.68,141.94-141.94S1631,305.38,1552.69,305.38Zm0,219.35a77.42,77.42,0,1,1,77.42-77.42A77.51,77.51,0,0,1,1552.69,524.73Z"/><path class="cls-4" d="M1554.84,0H445.16C199.31,0,0,199.31,0,445.16V1554.84C0,1800.69,199.31,2000,445.16,2000H1554.84c245.85,0,445.16-199.31,445.16-445.16V445.16C2000,199.31,1800.69,0,1554.84,0Zm380.64,1554.84c0,210.22-170.42,380.64-380.64,380.64H445.16c-210.22,0-380.64-170.42-380.64-380.64V445.16c0-210.22,170.42-380.64,380.64-380.64H1554.84c210.22,0,380.64,170.42,380.64,380.64V1554.84Z"/><path class="cls-5" d="M1541.93,150.54H458.07c-169.84,0-307.53,137.69-307.53,307.53V1541.94c0,169.84,137.69,307.52,307.53,307.52H1541.94c169.84,0,307.52-137.68,307.52-307.52V458.07C1849.46,288.22,1711.78,150.54,1541.93,150.54Zm243,1391.39c0,134.21-108.81,243-243,243H458.07c-134.21,0-243-108.81-243-243V458.07c0-134.21,108.8-243,243-243H1541.94c134.21,0,243,108.81,243,243V1541.93Z"/></g></g></svg>