<svg xmlns="http://www.w3.org/2000/svg" xmlns:xlink="http://www.w3.org/1999/xlink" viewBox="0 0 1986 1389.84"><defs><style>.cls-1{fill:url(#linear-gradient);}.cls-2{fill:#fff;fill-rule:evenodd;}</style><linearGradient id="linear-gradient" y1="694.92" x2="1986" y2="694.92" gradientUnits="userSpaceOnUse"><stop offset="0" stop-color="#6a82fb"/><stop offset="0.85" stop-color="#fc5c7d"/></linearGradient></defs><title>Asset 7</title><g id="Layer_2" data-name="Layer 2"><g id="Layer_6" data-name="Layer 6"><path class="cls-1" d="M1716.17,1374.69s-542.34,15.15-723.17,15.15-723.17-15.15-723.17-15.15c-140.08,0-254.68-114.61-254.68-254.68C15.15,1120,0,801.34,0,694.92S15.15,269.83,15.15,269.83c0-140.08,114.6-254.68,254.68-254.68C269.83,15.15,812.17,0,993,0s723.17,15.15,723.17,15.15c140.08,0,254.68,114.6,254.68,254.68,0,0,15.15,318.39,15.15,425.09S1970.85,1120,1970.85,1120C1970.85,1260.08,1856.25,1374.69,1716.17,1374.69Z"/><polygon class="cls-2" points="802.79 1005.45 802.79 384.38 1304.55 694.87 802.79 1005.45"/></g></g></svg>