<svg xmlns="http://www.w3.org/2000/svg" xmlns:xlink="http://www.w3.org/1999/xlink" viewBox="0 0 1096.56 1936.41"><defs><style>.cls-1{fill:url(#linear-gradient);}</style><linearGradient id="linear-gradient" y1="968.2" x2="1096.56" y2="968.2" gradientUnits="userSpaceOnUse"><stop offset="0" stop-color="#6a82fb"/><stop offset="0.85" stop-color="#fc5c7d"/></linearGradient></defs><title>Phone</title><g id="Layer_2" data-name="Layer 2"><g id="Layer_7" data-name="Layer 7"><path class="cls-1" d="M955.64,0H140.92A140.93,140.93,0,0,0,0,141.06V1795.49a140.87,140.87,0,0,0,140.92,140.92H955.64a141,141,0,0,0,140.92-140.92V141.06C1096.56,63.22,1033.47,0,955.64,0ZM347.24,85.66H749.46c10.16,0,18.41,15.18,18.41,34s-8.25,34-18.41,34H347.24c-10.23,0-18.34-15.24-18.34-34S337,85.66,347.24,85.66ZM548.35,1797.18a90,90,0,1,1,89.83-90C638.18,1756.82,597.81,1797.18,548.35,1797.18ZM991,1488.89H105.63V238H991Z"/></g></g></svg>