<svg xmlns="http://www.w3.org/2000/svg" xmlns:xlink="http://www.w3.org/1999/xlink" viewBox="0 0 1296 1944"><defs><style>.cls-1{fill:url(#linear-gradient);}</style><linearGradient id="linear-gradient" y1="972" x2="1296" y2="972" gradientUnits="userSpaceOnUse"><stop offset="0" stop-color="#6a82fb"/><stop offset="0.85" stop-color="#fc5c7d"/></linearGradient></defs><title>Asset 3</title><g id="Layer_2" data-name="Layer 2"><g id="Layer_3" data-name="Layer 3"><path class="cls-1" d="M648,0C290.7,0,0,290.7,0,648A649.22,649.22,0,0,0,77.8,955.94l534.76,967.17a40.51,40.51,0,0,0,70.88,0l535-967.49A649.16,649.16,0,0,0,1296,648C1296,290.7,1005.3,0,648,0Zm0,972c-178.65,0-324-145.35-324-324S469.35,324,648,324,972,469.35,972,648,826.65,972,648,972Z"/></g></g></svg>