<svg xmlns="http://www.w3.org/2000/svg" xmlns:xlink="http://www.w3.org/1999/xlink" viewBox="0 0 1098.69 1946"><defs><style>.cls-1{fill:url(#linear-gradient);}.cls-2{fill:url(#linear-gradient-2);}</style><linearGradient id="linear-gradient" x1="305.59" y1="1441.08" x2="793.1" y2="1441.08" gradientUnits="userSpaceOnUse"><stop offset="0" stop-color="#6a82fb"/><stop offset="0.85" stop-color="#fc5c7d"/></linearGradient><linearGradient id="linear-gradient-2" x1="0" y1="665.5" x2="1098.69" y2="665.5" xlink:href="#linear-gradient"/></defs><title>Asset 4</title><g id="Layer_2" data-name="Layer 2"><g id="Layer_4" data-name="Layer 4"><path class="cls-1" d="M792.84,1721.38a28.58,28.58,0,0,1-9.26,25.21L568.35,1938.75a28.52,28.52,0,0,1-38,0L315.13,1746.59a28.51,28.51,0,0,1-9.26-25.21L346,1432.73a28.53,28.53,0,1,1,56.52,7.85l-38,273.58,184.86,165,184.87-165.06L630.67,968.61a28.53,28.53,0,0,1,56.52-7.84Z"/><path class="cls-2" d="M1090.36,92.37l-84-84A28.36,28.36,0,0,0,986.21,0H112.5A28.38,28.38,0,0,0,92.38,8.33l-84,84a28.45,28.45,0,0,0-.14,40.1L321,449.59l137.23,177-93.34,672.08a28.45,28.45,0,0,0,24.27,32.1,29.2,29.2,0,0,0,3.94.27,28.46,28.46,0,0,0,28.15-24.54L512.8,647h73.09l26.18,188.55a28.45,28.45,0,1,0,56.36-7.82L640.49,626.54,777.72,449.59l312.77-317.13A28.44,28.44,0,0,0,1090.36,92.37ZM917.52,56.9l-65.73,65.72H486.55a28.46,28.46,0,0,0,0,56.91H794.89l-104,104h-283l-104-104h49.9a28.46,28.46,0,0,0,0-56.91H246.91L181.19,56.9Zm-584,324.41-265-268.69L112.5,68.68,362,318.23ZM596.72,590.13H502L375.4,426.92l39-86.45H684.27l39,86.45ZM765.14,381.31l-28.48-63.08L986.21,68.68l43.94,43.94Z"/></g></g></svg>